<?xml version="1.0" standalone="no"?>
<!DOCTYPE svg PUBLIC "-//W3C//DTD SVG 20010904//EN"
 "http://www.w3.org/TR/2001/REC-SVG-20010904/DTD/svg10.dtd">
<svg version="1.0" xmlns="http://www.w3.org/2000/svg"
 width="512.000000pt" height="512.000000pt" viewBox="0 0 512.000000 512.000000"
 preserveAspectRatio="xMidYMid meet">

<g transform="translate(0.000000,512.000000) scale(0.100000,-0.100000)"
fill="#FFFFFF" stroke="none">
<path d="M1521 5105 c-264 -60 -451 -290 -451 -555 0 -247 170 -474 407 -543
201 -59 403 -7 554 143 119 117 169 236 169 400 0 103 -19 181 -65 270 -114
216 -378 339 -614 285z"/>
<path d="M2226 3884 c-44 -8 -82 -16 -84 -19 -2 -2 25 -17 61 -33 66 -30 194
-109 232 -142 13 -11 45 -20 91 -24 144 -12 317 -77 464 -174 184 -120 331
-257 685 -637 436 -468 656 -664 893 -795 23 -13 42 -27 42 -30 0 -14 -119
-94 -195 -130 -80 -39 -153 -64 -407 -139 -294 -87 -492 -203 -676 -395 -35
-36 -65 -66 -67 -66 -2 0 -25 39 -51 87 -109 199 -280 428 -434 578 l-72 70
-78 -83 -78 -84 85 -86 c164 -168 292 -357 476 -706 l114 -215 69 102 c87 130
276 321 395 400 142 94 275 152 465 201 334 87 517 194 754 443 l103 108 -39
14 c-90 34 -303 148 -412 221 -211 141 -388 308 -835 786 -449 481 -743 683
-1090 749 -99 19 -304 18 -411 -1z"/>
<path d="M1422 3755 c-162 -29 -314 -92 -442 -183 -64 -45 -117 -96 -612 -579
l-248 -241 410 -425 c345 -358 417 -428 455 -443 33 -12 44 -21 41 -33 -3 -9
-80 -344 -172 -746 -183 -795 -187 -826 -147 -916 30 -66 86 -124 151 -156 81
-39 183 -39 264 0 64 31 122 91 148 151 9 22 95 384 191 803 95 419 175 761
177 759 2 -2 82 -347 177 -765 96 -419 183 -781 193 -805 26 -58 84 -113 151
-145 44 -20 71 -26 126 -25 95 1 160 30 224 100 55 60 81 123 81 199 0 30 -69
353 -170 795 -93 409 -170 749 -170 755 0 7 24 25 54 41 43 23 138 116 448
438 216 225 394 412 396 416 5 12 -762 752 -842 812 -133 99 -284 163 -460
193 -107 18 -323 18 -424 0z m359 -429 c147 -32 239 -105 239 -192 0 -120
-168 -208 -394 -206 -235 2 -404 111 -371 239 16 65 130 139 250 163 65 13
205 11 276 -4z m-741 -593 l-1 -278 -141 144 -141 144 139 133 c76 73 140 133
142 134 1 0 2 -125 2 -277z m1339 143 l134 -135 -132 -138 c-73 -76 -137 -139
-142 -141 -5 -2 -9 113 -9 272 0 152 3 276 8 276 4 0 68 -60 141 -134z"/>
</g>
</svg>
